<svg xmlns="http://www.w3.org/2000/svg" viewBox="0 0 487.58 64.84"><defs><style>.cls-1{fill:#61ad00;}.cls-2{fill:#1b365d;}.cls-3{fill:#c5dc6f;}</style></defs><title>Asset 5</title><g id="Layer_2" data-name="Layer 2"><g id="Layer_1-2" data-name="Layer 1"><polygon class="cls-1" points="28.2 0 19.58 4.96 28.2 9.93 36.8 4.96 28.2 0"/><polygon class="cls-1" points="18.62 5.51 10.03 10.48 18.62 15.44 27.22 10.48 18.62 5.51"/><polygon class="cls-1" points="37.75 5.51 29.15 10.48 37.75 15.44 46.35 10.48 37.75 5.51"/><polygon class="cls-1" points="47.3 11.03 38.7 15.99 47.3 20.95 55.9 15.99 47.3 11.03"/><polygon class="cls-1" points="9.07 11.03 0.48 15.99 9.07 20.95 17.67 15.99 9.07 11.03"/><polygon class="cls-2" points="0 48.83 8.6 53.79 8.6 43.86 0 38.9 0 48.83"/><polygon class="cls-2" points="9.55 54.34 18.15 59.33 18.15 49.38 9.55 44.42 9.55 54.34"/><polygon class="cls-2" points="0 37.8 8.6 42.76 8.6 32.84 0 27.87 0 37.8"/><polygon class="cls-2" points="0 26.77 8.6 31.73 8.6 21.78 0 16.82 0 26.77"/><polygon class="cls-2" points="19.1 59.88 27.72 64.84 27.72 54.89 19.1 49.93 19.1 59.88"/><polygon class="cls-3" points="56.4 48.83 47.77 53.79 47.77 43.86 56.4 38.9 56.4 48.83"/><polygon class="cls-3" points="46.82 54.34 38.23 59.33 38.23 49.38 46.82 44.42 46.82 54.34"/><polygon class="cls-3" points="56.4 37.8 47.77 42.76 47.77 32.84 56.4 27.87 56.4 37.8"/><polygon class="cls-3" points="56.4 26.77 47.77 31.73 47.77 21.78 56.4 16.82 56.4 26.77"/><polygon class="cls-3" points="37.27 59.88 28.68 64.84 28.68 54.89 37.27 49.93 37.27 59.88"/><polygon class="cls-1" points="28.2 54.07 36.8 49.1 28.2 44.14 19.58 49.1 28.2 54.07"/><polygon class="cls-1" points="37.75 48.55 46.35 43.59 37.75 38.63 29.15 43.59 37.75 48.55"/><polygon class="cls-1" points="18.62 48.55 27.22 43.59 18.62 38.63 10.03 43.59 18.62 48.55"/><polygon class="cls-2" points="46.82 21.78 38.23 16.82 38.23 26.77 46.82 31.73 46.82 21.78"/><polygon class="cls-2" points="37.27 16.27 28.68 11.3 28.68 21.23 37.27 26.22 37.27 16.27"/><polygon class="cls-2" points="46.82 32.84 38.23 27.87 38.23 37.8 46.82 42.76 46.82 32.84"/><polygon class="cls-3" points="9.55 21.78 18.15 16.82 18.15 26.77 9.55 31.73 9.55 21.78"/><polygon class="cls-3" points="19.1 16.27 27.72 11.3 27.72 21.23 19.1 26.22 19.1 16.27"/><polygon class="cls-3" points="9.55 32.84 18.15 27.87 18.15 37.8 9.55 42.76 9.55 32.84"/><polygon class="cls-3" points="37.27 37.8 37.27 27.87 28.68 32.84 28.68 42.76 37.27 37.8"/><polygon class="cls-2" points="19.1 37.8 27.7 42.76 27.7 32.84 19.1 27.87 19.1 37.8"/><polygon class="cls-1" points="28.2 22.06 19.58 27.05 28.2 32.01 36.8 27.05 28.2 22.06"/><path class="cls-2" d="M95.87,52l-1.81-5.83H82L80.08,52H70L84.26,12.85h7.42L105.93,52ZM88.22,27.7,84.7,38.14h6.82Z"/><path class="cls-2" d="M128.65,48.54a13.82,13.82,0,0,1-19,0c-2.47-2.69-3.24-5.5-3.24-11.33s.77-8.63,3.24-11.33a13.82,13.82,0,0,1,19,0c2.47,2.69,3.24,5.55,3.24,11.33S131.12,45.84,128.65,48.54ZM121.55,31a4,4,0,0,0-4.84,0c-1.15,1.15-1.32,3.24-1.32,6.16s.17,5,1.32,6.16a4,4,0,0,0,4.84,0c1.16-1.15,1.32-3.24,1.32-6.16S122.71,32.2,121.55,31Z"/><path class="cls-2" d="M151.64,38h-5.88V52h-9.62V12.85h15.51C160.32,12.85,165,19,165,25.44S160.32,38,151.64,38Zm-.44-16.55h-5.44V29.4h5.44a4,4,0,1,0,0-7.92Z"/><path class="cls-2" d="M181.06,52.33c-6,0-10.89-1.1-14.85-5.17L172.37,41c2,2,5.61,2.75,8.74,2.75,3.79,0,5.61-1.26,5.61-3.52a3.27,3.27,0,0,0-.77-2.31,4.37,4.37,0,0,0-2.58-1l-4.73-.66c-3.46-.5-6.1-1.65-7.86-3.46s-2.69-4.51-2.69-7.86c0-7.15,5.39-12.37,14.3-12.37,5.61,0,9.84,1.32,13.2,4.67l-6,6c-2.47-2.47-5.72-2.31-7.42-2.31-3.35,0-4.73,1.92-4.73,3.63a2.58,2.58,0,0,0,.77,1.81,4.41,4.41,0,0,0,2.7,1.15l4.73.66c3.52.5,6,1.59,7.7,3.24,2.09,2,2.92,4.95,2.92,8.58C196.18,48,189.31,52.33,181.06,52.33Z"/><path class="cls-2" d="M224.35,46.72H214.12l-1.91,5.33h-1.79l8.08-21.95H220l8.08,21.95h-1.79Zm-9.71-1.48h9.19l-4.59-12.91Z"/><path class="cls-2" d="M236.28,38.4c-2.56,0-4,2.13-4,4.5v9.16h-1.57V37.2h1.57v2A5.09,5.09,0,0,1,236.65,37a4.54,4.54,0,0,1,3.58,1.42l-1.14,1.14A3.4,3.4,0,0,0,236.28,38.4Z"/><path class="cls-2" d="M243.25,48.17v-9.8h-2V37.2h2V32.45h1.57V37.2h3.36v1.17h-3.36V48.2c0,1.57.71,2.47,2.28,2.47h1.08v1.39h-1.36C244.48,52.05,243.25,50.42,243.25,48.17Z"/><path class="cls-2" d="M268.47,50.61a6,6,0,0,1-8.26,0c-1.57-1.57-1.85-3.85-1.85-6s.28-4.41,1.85-6a6,6,0,0,1,8.26,0c1.57,1.57,1.85,3.85,1.85,6S270,49,268.47,50.61Zm-1-10.94a4.39,4.39,0,0,0-6.17,0c-1.23,1.23-1.32,3.24-1.32,5s.09,3.73,1.32,5a4.39,4.39,0,0,0,6.17,0c1.23-1.23,1.33-3.24,1.33-5S268.65,40.9,267.42,39.66Z"/><path class="cls-2" d="M276.08,52.05h-1.57V38.37h-2V37.2h2V34c0-2.25,1.23-3.88,3.58-3.88h1.36V31.5h-1.08c-1.57,0-2.28.89-2.28,2.47V37.2h3.36v1.17h-3.36Z"/><path class="cls-2" d="M298.18,42.75H291.8v9.31h-1.66V30.11h8c3.79,0,6.63,2.28,6.63,6.32S302,42.75,298.18,42.75ZM298,31.59h-6.2v9.68H298c3.05,0,5.15-1.54,5.15-4.84S301.05,31.59,298,31.59Z"/><path class="cls-2" d="M313.2,38.4c-2.56,0-4,2.13-4,4.5v9.16h-1.57V37.2h1.57v2A5.09,5.09,0,0,1,313.57,37a4.54,4.54,0,0,1,3.58,1.42L316,39.57A3.4,3.4,0,0,0,313.2,38.4Z"/><path class="cls-2" d="M327.78,50.61a6,6,0,0,1-8.26,0c-1.57-1.57-1.85-3.85-1.85-6s.28-4.41,1.85-6a6,6,0,0,1,8.26,0c1.57,1.57,1.85,3.85,1.85,6S329.35,49,327.78,50.61Zm-1-10.94a4.39,4.39,0,0,0-6.17,0c-1.23,1.23-1.32,3.24-1.32,5s.09,3.73,1.32,5a4.39,4.39,0,0,0,6.17,0c1.23-1.23,1.33-3.24,1.33-5S328,40.9,326.73,39.66Z"/><path class="cls-2" d="M343,50.94a5.13,5.13,0,0,1-3.64,1.29,4.93,4.93,0,0,1-4.41-2.09v1.91h-1.57V30.11h1.57v9a4.93,4.93,0,0,1,4.41-2.1A5.13,5.13,0,0,1,343,38.31c1.51,1.51,1.91,4,1.91,6.32S344.49,49.43,343,50.94ZM339.12,38.4c-3.64,0-4.19,3.14-4.19,6.23s.56,6.23,4.19,6.23,4.19-3.14,4.19-6.23S342.76,38.4,339.12,38.4Z"/><path class="cls-2" d="M348.56,48.2V30.11h1.57V48.17c0,1.69.52,2.5,2.28,2.5h1.08v1.39h-1.36C349.7,52.05,348.56,50.54,348.56,48.2Z"/><path class="cls-2" d="M361.48,50.82a5.17,5.17,0,0,0,4.1-1.79l1.17.92a6.74,6.74,0,0,1-5.36,2.28c-4.1,0-6.32-2.65-6.32-7.61,0-4.81,2.22-7.61,6-7.61S367,39.69,367,44.26V45H356.64C356.64,48.76,358.3,50.82,361.48,50.82Zm3.39-9.93a4.22,4.22,0,0,0-7.71,0,8.08,8.08,0,0,0-.52,2.81h8.75A6.78,6.78,0,0,0,364.86,40.9Z"/><path class="cls-2" d="M390.39,42.84c0-2.87-1.42-4.44-4.1-4.44a3.88,3.88,0,0,0-4.19,4.16v9.49h-1.57V42.84c0-2.87-1.42-4.44-4.1-4.44s-4.19,1.6-4.19,4.44v9.22h-1.57V37.2h1.57V39A5.53,5.53,0,0,1,376.64,37a5,5,0,0,1,4.78,2.71A5.68,5.68,0,0,1,386.47,37a5.57,5.57,0,0,1,3.91,1.42,5.51,5.51,0,0,1,1.54,4.13v9.49h-1.54Z"/><path class="cls-2" d="M409.94,52.24a9.3,9.3,0,0,1-7.3-2.9l1.17-1.17A7.71,7.71,0,0,0,410,50.76c3.48,0,5.64-1.66,5.64-4.53a3.82,3.82,0,0,0-1.2-3.08A5.31,5.31,0,0,0,411.29,42l-2.56-.4a7.46,7.46,0,0,1-3.91-1.6,5,5,0,0,1-1.73-4c0-3.7,2.59-6,6.81-6a8.67,8.67,0,0,1,6.32,2.37l-1.08,1.08a7,7,0,0,0-5.33-2c-3.21,0-5.09,1.73-5.09,4.53a3.52,3.52,0,0,0,1.14,2.87,7.34,7.34,0,0,0,3.27,1.36l2.37.37a6.66,6.66,0,0,1,3.91,1.45,5.38,5.38,0,0,1,1.91,4.25C417.33,49.9,414.53,52.24,409.94,52.24Z"/><path class="cls-2" d="M430,50.61a6,6,0,0,1-8.26,0c-1.57-1.57-1.85-3.85-1.85-6s.28-4.41,1.85-6a6,6,0,0,1,8.26,0c1.57,1.57,1.85,3.85,1.85,6S431.58,49,430,50.61Zm-1-10.94a4.39,4.39,0,0,0-6.16,0c-1.23,1.23-1.32,3.24-1.32,5s.09,3.73,1.32,5a4.39,4.39,0,0,0,6.16,0c1.23-1.23,1.33-3.24,1.33-5S430.19,40.9,429,39.66Z"/><path class="cls-2" d="M435.21,48.2V30.11h1.57V48.17c0,1.69.52,2.5,2.28,2.5h1.08v1.39h-1.36C436.35,52.05,435.21,50.54,435.21,48.2Z"/><path class="cls-2" d="M445,52.05,439.56,37.2h1.72l4.47,13,4.47-13h1.73l-5.43,14.86Z"/><path class="cls-2" d="M454.41,30.11h1.94v1.94h-1.94Zm.18,7.09h1.57V52.05H454.6Z"/><path class="cls-2" d="M471.25,42.84c0-2.87-1.42-4.44-4.1-4.44S463,40,463,42.84v9.22h-1.57V37.2H463V39a5.49,5.49,0,0,1,9.86,3.61v9.49h-1.57Z"/><path class="cls-2" d="M481.51,59.33a6.33,6.33,0,0,1-4.9-2l1-1a4.83,4.83,0,0,0,3.85,1.63c3.11,0,4.5-2.19,4.5-5.15V50.14a4.93,4.93,0,0,1-4.41,2.09A5.13,5.13,0,0,1,478,50.94c-1.51-1.51-1.91-4-1.91-6.32s.4-4.81,1.91-6.32A5.13,5.13,0,0,1,481.6,37a4.93,4.93,0,0,1,4.41,2.1V37.2h1.57V52.89C487.58,56.62,485.36,59.33,481.51,59.33Zm.31-20.93c-3.64,0-4.19,3.14-4.19,6.23s.55,6.23,4.19,6.23S486,47.71,486,44.63,485.46,38.4,481.82,38.4Z"/></g></g></svg>
