<?xml version="1.0" encoding="UTF-8"?>
<svg width="94px" height="40px" viewBox="0 0 94 40" version="1.1" xmlns="http://www.w3.org/2000/svg" xmlns:xlink="http://www.w3.org/1999/xlink">
    <!-- Generator: Sketch 47.1 (45422) - http://www.bohemiancoding.com/sketch -->
    <title>logoWhite</title>
    <desc>Created with Sketch.</desc>
    <defs></defs>
    <g id="Symbols" stroke="none" stroke-width="1" fill="none" fill-rule="evenodd">
        <g id="logoNavDesktop" transform="translate(0.000000, -22.000000)" fill="#FFFFFF">
            <path d="M61.2792711,47.9405783 C58.1916681,47.9405783 55.6661053,45.4940376 55.4514204,42.3961372 L55.4514204,41.5422133 C55.6661053,38.4443129 58.1916681,35.9977722 61.2792711,35.9977722 C64.5067811,35.9977722 67.1240071,38.6711365 67.1240071,41.9691753 C67.1240071,45.267214 64.5067811,47.9405783 61.2792711,47.9405783 M61.4758646,30.9324504 C59.4773653,30.9324504 57.605506,31.4867732 55.9989875,32.4535025 C55.7613868,32.5966318 55.4658936,32.4729098 55.382673,32.2060586 C55.382673,32.2036327 55.3814669,32.2012068 55.3802608,32.1999938 C55.1993466,31.6408192 54.6734892,31.2393293 54.0571747,31.2393293 L51.355522,31.2393293 C50.5860335,31.2393293 49.9612763,31.8664297 49.9612763,32.6415113 L49.9612763,60.597818 C49.9612763,61.3716866 50.5860335,62 51.355522,62 L54.0571747,62 C54.8266632,62 55.4514204,61.3716866 55.4514204,60.597818 L55.4514204,53.1987608 C55.4514204,52.3290683 56.3391063,51.7201623 57.1266863,52.0755596 C58.4582151,52.673549 59.9284448,53.0059001 61.4758646,53.0059001 C67.4412101,53.0059001 72.2788569,48.0643003 72.2788569,41.9691753 C72.2788569,35.8740502 67.4412101,30.9324504 61.4758646,30.9324504 M76.9174979,51.148858 L76.8583993,32.772511 C76.8559871,31.9416333 77.5241637,31.2648015 78.3515448,31.2623756 L80.8674588,31.2538848 C81.69484,31.2514589 82.3666348,31.9234389 82.369047,32.7543166 L82.4281457,51.1318766 C82.4305579,51.9627543 81.7623813,52.6395861 80.9362062,52.6420121 L78.4190861,52.6505028 C77.5929111,52.6529287 76.9199101,51.9809487 76.9174979,51.148858 M88.4019339,51.1112563 L88.3440413,32.7361222 C88.3416291,31.9040315 89.0098057,31.2271997 89.8359807,31.2247738 L92.3531008,31.2162831 C93.1792759,31.2138572 93.8522768,31.8858371 93.854689,32.7179278 L93.9137877,51.0942748 C93.9161999,51.9263655 93.2480233,52.6019844 92.4218482,52.6044103 L89.9047281,52.612901 C89.077347,52.6153269 88.4055521,51.943347 88.4019339,51.1112563 M15.0375916,39.9847724 L6.93745803,39.9847724 C6.25722049,39.9847724 5.81458365,39.2666999 6.11731348,38.654155 C6.50446995,37.8717957 7.01826639,37.1973898 7.67438203,36.6503448 C8.60307512,35.8752632 9.74524702,35.4834771 11.0671271,35.4834771 C12.3914193,35.4834771 13.5275607,35.8837539 14.4417807,36.674604 C15.0785988,37.2252879 15.5682733,37.8827123 15.8697971,38.6480902 C15.8794458,38.6747754 15.8903007,38.7014605 15.8999494,38.7269326 C16.1315197,39.3346257 15.6852645,39.9847724 15.0375916,39.9847724 M16.5753626,46.8125253 C16.173733,47.1363857 15.6321964,47.4469035 14.9459283,47.7634861 C13.9593427,48.2183462 12.8726512,48.4500216 11.7160061,48.4500216 C10.1082816,48.4500216 8.75383699,48.0182078 7.68885517,47.1654968 C6.93504584,46.5626555 6.39109702,45.8506479 6.03891731,45.0525201 C6.03047464,45.0331127 6.02203198,45.0149183 6.01479541,44.995511 C5.755485,44.385392 6.20535841,43.7085602 6.86509233,43.7085602 L20.5108503,43.7085602 C21.0728906,43.7085602 21.5456798,43.2815982 21.5951297,42.7175717 C21.6228699,42.3949243 21.6481979,41.9934345 21.6590527,41.5094633 C21.6566405,38.4782758 20.6399025,35.9165039 18.6377849,33.8957122 C16.6320491,31.8724945 14.0859827,30.8463302 11.0671271,30.8463302 C8.04947755,30.8463302 5.4226028,31.9464851 3.2588685,34.114045 C1.09634029,36.2816049 0,38.9197933 0,41.9558327 C0,44.9906591 1.11081343,47.6288475 3.30108182,49.7951945 C5.4925563,51.9639673 8.17852971,53.0641222 11.2830181,53.0641222 C12.3829766,53.0641222 13.4660499,52.9343355 14.5020854,52.6796138 C15.538121,52.4248922 16.389624,52.1277169 17.0336787,51.7965788 C17.6837638,51.4630147 18.3109332,51.0845712 18.8826222,50.6527573 C19.0936888,50.4950725 19.2951067,50.3325358 19.4760209,50.1809158 C19.9186577,49.80975 19.9837869,49.1535385 19.6304011,48.6962525 L18.2301248,46.88409 C17.8562354,46.4001189 17.1615247,46.3224894 16.6935599,46.7142756 C16.656171,46.7470255 16.6163698,46.7797754 16.5753626,46.8125253 M93.8932841,24.1046974 C94.4830645,26.3074332 92.5352212,28.2797064 90.3401284,27.7023374 C89.3752525,27.4476157 88.594909,26.6676823 88.3355986,25.6997401 C87.7470243,23.4957914 89.6960737,21.5235181 91.8899604,22.1021001 C92.8536302,22.3568218 93.6351797,23.1367552 93.8932841,24.1046974 M82.3461312,24.1422992 C82.9359116,26.3450349 80.9880683,28.3173082 78.7929756,27.7387262 C77.8293057,27.4852175 77.0477562,26.7040711 76.7884458,25.7361289 C76.1998715,23.5333932 78.1489209,21.5611199 80.3428075,22.1397019 C81.3064774,22.3932106 82.0880269,23.174357 82.3461312,24.1422992 M40.4560422,41.0279181 C39.9338031,41.5434262 39.9313909,42.3803688 40.45363,42.8958768 C44.1852877,46.578424 45.4396264,49.6399356 45.8352256,51.5612645 C45.8870876,51.8099214 45.8183402,52.065856 45.6470747,52.2623555 C45.472191,52.4624939 45.2152928,52.5765122 44.9415092,52.5765122 L40.8419926,52.5765122 C40.4451873,52.5765122 40.1002442,52.3424109 39.9820469,51.9942913 C39.5888599,50.8237847 38.6010682,48.9218631 36.1285736,46.5104982 C35.8596144,46.2484988 35.4965798,46.1041566 35.1070112,46.1029436 L35.1021868,46.1029436 C34.7150303,46.1029436 34.3532018,46.24486 34.0842427,46.5044334 C31.5635043,48.9327798 30.6818489,50.7873959 30.3863556,51.9166619 C30.2838376,52.3048091 29.920803,52.5765122 29.502288,52.5765122 L25.46187,52.5765122 C25.1977352,52.5765122 24.9468675,52.4685587 24.7731898,52.2805499 C24.6019243,52.094967 24.5247343,51.8487361 24.559711,51.606144 C24.8419372,49.6811762 25.9708421,46.6075351 29.7471253,42.9019416 C30.2778071,42.3815817 30.2778071,41.5446392 29.7471253,41.0254922 C25.9033008,37.253186 24.7948995,34.1358783 24.5416196,32.1854383 C24.509055,31.9392074 24.5862451,31.7026801 24.7599228,31.5170972 C24.9311883,31.3339402 25.1796438,31.2271997 25.4401603,31.2271997 C26.617309,31.2235608 28.3745893,31.218709 29.4878149,31.219922 C29.9111542,31.2211349 30.2753949,31.5013287 30.3730886,31.9028186 C30.6541087,33.0575567 31.5261153,34.9522005 34.0818305,37.4193615 C34.3507896,37.680148 34.7150303,37.8232773 35.104599,37.8232773 L35.1070112,37.8232773 C35.498992,37.8220643 35.8632327,37.6777221 36.134604,37.4145097 C38.6722278,34.9461357 39.6612256,33.0260197 40.0435577,31.8506613 C40.1641672,31.4807084 40.5127286,31.2320516 40.91074,31.2320516 L44.9656311,31.2320516 C45.2382086,31.2320516 45.4939007,31.3436439 45.6675784,31.5401435 C45.8388438,31.7342171 45.9100034,31.9865128 45.8617596,32.2339567 C45.4902824,34.1795448 44.2492107,37.284723 40.4560422,41.0279181" id="logoWhite"></path>
        </g>
    </g>
</svg>
